<svg version="1.1" xmlns="http://www.w3.org/2000/svg" viewBox="0 0 305.2651404411772 188.53832103587956" width="305.2651404411772" height="188.53832103587956">
  <!-- svg-source:excalidraw -->
  
  <defs>
    <style>
      @font-face {
        font-family: "Virgil";
        src: url("https://excalidraw.com/Virgil.woff2");
      }
      @font-face {
        font-family: "Cascadia";
        src: url("https://excalidraw.com/Cascadia.woff2");
      }
    </style>
  </defs>
  <rect x="0" y="0" width="305.2651404411772" height="188.53832103587956" fill="#ffffff"></rect><g stroke-linecap="round" transform="translate(196.61734761539265 80.9365870401507) rotate(0 49.32389641289228 47.63750710382374)"><path d="M1.73 -1.24 C22.61 0.74, 40.99 0.32, 98.55 -0.38 M-0.72 -0.86 C27.88 -0.03, 54.94 0.87, 99.27 -0.19 M97.1 -0.2 C97.68 36.38, 98.59 70.12, 99.58 95.76 M98.62 0.16 C98.92 27.1, 97.6 56.79, 99.21 94.28 M99.63 94.32 C73.74 94.83, 48 93.59, 0.03 96.94 M98.98 94.35 C72.49 96.21, 47.95 95.61, -0.68 94.87 M-0.77 94.61 C-2.31 75.31, 0.59 55.26, -0.49 -0.37 M0.63 96.15 C-0.53 65.19, 0.84 35.14, 0.37 -0.96" stroke="#000000" stroke-width="1" fill="none"></path></g><g transform="translate(259.21037440259533 150.6756159144934) rotate(0 12.860791200002495 8.818828251430205)"><text x="0" y="14.63765650286048" font-family="Cascadia, Segoe UI Emoji" font-size="14.640514935032412px" fill="#000000" text-anchor="start" style="white-space: pre;" direction="ltr">Art</text></g><g stroke-linecap="round" transform="translate(10 63.58647676029432) rotate(0 54.35255225540823 57.47592213779262)"><path d="M55.83 1.02 C67.42 12.7, 80.01 26.13, 110.12 59.77 M55.54 -0.77 C76.34 22.89, 95.91 43.8, 108.37 58.9 M109.76 59.09 C87.34 82.26, 67.2 104.28, 55.45 114.96 M107.79 58.7 C91.24 76.79, 74.6 93.73, 55.4 114.34 M55.41 115.13 C40.4 100.94, 26.68 86.11, -0.48 57.06 M54.67 114.33 C38.85 99.52, 23.1 83.84, -0.41 58.66 M0.22 57.41 C13.5 42.49, 30.05 27.68, 54.77 1.64 M-0.76 57.64 C14.96 42.6, 31.03 25.71, 55.08 -0.32" stroke="#000000" stroke-width="1" fill="none"></path></g><g transform="translate(33.17058058104158 112.44202569137997) rotate(0 28.790837533058948 6.536298250748587)"><text x="0" y="10.072596501496813" font-family="Cascadia, Segoe UI Emoji" font-size="10.891558783381559px" fill="#000000" text-anchor="start" style="white-space: pre;" direction="ltr">NFT Token</text></g><g stroke-linecap="round"><g transform="translate(196.21954584749983 100.77235035771082) rotate(359.3563366296988 -48.13642185225399 -0.33288456383706944)"><path d="M0 0 C-16.05 -0.11, -80.23 -0.55, -96.27 -0.67 M0 0 C-16.05 -0.11, -80.23 -0.55, -96.27 -0.67" stroke="#000000" stroke-width="1" fill="none"></path></g><g transform="translate(196.21954584749983 100.77235035771082) rotate(359.3563366296988 -48.13642185225399 -0.33288456383706944)"><path d="M-68.01 -10.73 C-78.42 -7.03, -88.82 -3.32, -96.27 -0.67 M-68.01 -10.73 C-78.57 -6.97, -89.12 -3.21, -96.27 -0.67" stroke="#000000" stroke-width="1" fill="none"></path></g><g transform="translate(196.21954584749983 100.77235035771082) rotate(359.3563366296988 -48.13642185225399 -0.33288456383706944)"><path d="M-68.15 9.79 C-78.51 5.94, -88.86 2.09, -96.27 -0.67 M-68.15 9.79 C-78.66 5.88, -89.16 1.98, -96.27 -0.67" stroke="#000000" stroke-width="1" fill="none"></path></g></g><g transform="translate(118.02315211744644 10) rotate(0 43.667058752871526 5.9420364758652795)"><text x="0" y="9.88407295173068" font-family="Cascadia, Segoe UI Emoji" font-size="9.949456424704755px" fill="#000000" text-anchor="start" style="white-space: pre;" direction="ltr">People own this</text></g><g stroke-linecap="round"><g transform="translate(118.89904008615122 24.10487692233255) rotate(0 -24.490258352676392 20.441997667652686)"><path d="M0 0 C-8.16 6.81, -40.82 34.07, -48.98 40.88 M0 0 C-8.16 6.81, -40.82 34.07, -48.98 40.88" stroke="#000000" stroke-width="1" fill="none"></path></g><g transform="translate(118.89904008615122 24.10487692233255) rotate(0 -24.490258352676392 20.441997667652686)"><path d="M-33.91 14.94 C-39.62 24.76, -45.32 34.58, -48.98 40.88 M-33.91 14.94 C-39.37 24.33, -44.82 33.73, -48.98 40.88" stroke="#000000" stroke-width="1" fill="none"></path></g><g transform="translate(118.89904008615122 24.10487692233255) rotate(0 -24.490258352676392 20.441997667652686)"><path d="M-20.76 30.7 C-31.44 34.55, -42.12 38.41, -48.98 40.88 M-20.76 30.7 C-30.98 34.38, -41.2 38.07, -48.98 40.88" stroke="#000000" stroke-width="1" fill="none"></path></g></g></svg>